<svg width="36" height="36" viewBox="0 0 36 36" fill="none" xmlns="http://www.w3.org/2000/svg">
<path d="M2.57143 5.14288H15.4286C16.1106 5.14288 16.7646 5.4138 17.2468 5.89604C17.7291 6.37827 18 7.03233 18 7.71431C18 8.3963 17.7291 9.05035 17.2468 9.53259C16.7646 10.0148 16.1106 10.2857 15.4286 10.2857H2.57143C1.88944 10.2857 1.23539 10.0148 0.753154 9.53259C0.270918 9.05035 0 8.3963 0 7.71431C0 7.03233 0.270918 6.37827 0.753154 5.89604C1.23539 5.4138 1.88944 5.14288 2.57143 5.14288ZM20.5714 25.7143H33.4286C34.1106 25.7143 34.7646 25.9852 35.2468 26.4675C35.7291 26.9497 36 27.6038 36 28.2857C36 28.9677 35.7291 29.6218 35.2468 30.104C34.7646 30.5863 34.1106 30.8572 33.4286 30.8572H20.5714C19.8894 30.8572 19.2354 30.5863 18.7532 30.104C18.2709 29.6218 18 28.9677 18 28.2857C18 27.6038 18.2709 26.9497 18.7532 26.4675C19.2354 25.9852 19.8894 25.7143 20.5714 25.7143ZM2.57143 15.4286H33.4286C34.1106 15.4286 34.7646 15.6995 35.2468 16.1818C35.7291 16.664 36 17.318 36 18C36 18.682 35.7291 19.3361 35.2468 19.8183C34.7646 20.3005 34.1106 20.5715 33.4286 20.5715H2.57143C1.88944 20.5715 1.23539 20.3005 0.753154 19.8183C0.270918 19.3361 0 18.682 0 18C0 17.318 0.270918 16.664 0.753154 16.1818C1.23539 15.6995 1.88944 15.4286 2.57143 15.4286Z" fill="white"/>
</svg>
