<svg width="125" height="48" viewBox="0 0 125 48" fill="none" xmlns="http://www.w3.org/2000/svg">
<path d="M0 9.46289V3.67954e-05H29.5771V9.46289H19.68V48H10.0114V9.46289H0Z" fill="white"/>
<path d="M19.7028 3.67954e-05H29.5771L40.48 37.1657L36.8457 48H33.6228L19.7028 3.67954e-05ZM37.3257 12.7543L41.0971 3.67954e-05H50.9714L61.8057 37.1657L58.24 48H55.0171L45.9657 16.7315C45.5085 18.1943 44.8457 20.4114 43.9771 23.3829C43.3371 25.4857 42.8571 27.0629 42.5371 28.1143H41.8514L37.3257 12.7543ZM58.9942 12.7543L62.7657 3.67954e-05H72.6399L64.2057 28.1143H63.5199L58.9942 12.7543Z" fill="white"/>
<path d="M76.5028 48L85.8285 23.2457L77.3257 0H86.7199L90.6285 10.4228L94.5371 0H103.931L95.4285 23.2457L104.754 48H94.8114L90.6285 36.5485L86.4456 48H76.5028Z" fill="white"/>
<path d="M94.5371 9.46285V0H124.114V9.46285H114.103V48H104.434V9.46285H94.5371Z" fill="white"/>
</svg>
